<svg width="57" height="58" viewBox="0 0 57 58" fill="none" xmlns="http://www.w3.org/2000/svg">
<path d="M49.9733 46.28C52.5333 43.0089 54.24 39.3822 55.0933 35.4C56.0889 31.2756 56.16 27.2222 55.3067 23.24C54.4533 19.1156 52.7467 15.4178 50.1867 12.1467C47.4844 8.44889 44 5.60444 39.7333 3.61333C35.4667 1.62222 30.9867 0.768889 26.2933 1.05333C21.7422 1.33778 17.4756 2.68889 13.4933 5.10667C9.51111 7.38222 6.38222 10.5111 4.10667 14.4933V4.89333H0.0533333V18.9733L1.97333 20.8933H16.0533V17.0533H7.30667C10.0089 12.2178 13.92 8.80444 19.04 6.81333C24.16 4.68 29.3511 4.39555 34.6133 5.96C39.8756 7.38222 44.1422 10.2978 47.4133 14.7067C50.6844 19.1156 52.2489 24.0933 52.1067 29.64C51.9644 35.0444 50.1156 39.88 46.56 44.1467C43.1467 48.4133 38.7378 51.1867 33.3333 52.4667C28.0711 53.7467 22.9511 53.2489 17.9733 50.9733C12.9956 48.5556 9.22667 44.9289 6.66667 40.0933L3.25333 42.0133C5.38667 46.1378 8.44444 49.5511 12.4267 52.2533C16.4089 54.9556 20.7467 56.52 25.44 56.9467C30.1333 57.3733 34.6844 56.6622 39.0933 54.8133C43.5022 52.8222 47.1289 49.9778 49.9733 46.28ZM36.5333 42.44L39.52 39.6667L28 28.1467V13H23.9467V29L24.5867 30.4933L36.5333 42.44Z" fill="#3794FF"/>
</svg>
