<svg width="64" height="64" viewBox="0 0 64 64" fill="none" xmlns="http://www.w3.org/2000/svg">
<path d="M29.2267 36.0533L25.6 39.4667C25.0311 37.3333 23.8222 35.5556 21.9733 34.1333C20.2667 32.7111 18.2756 32 16 32C13.7244 32 11.6622 32.7111 9.81333 34.1333C8.10667 35.5556 6.96889 37.3333 6.4 39.4667L2.77333 36.0533L0 38.8267L4.69333 43.3067L4.05333 43.9467V48H0V52.0533H4.05333V52.2667C4.19556 53.5467 4.55111 54.8267 5.12 56.1067L0 61.2267L2.77333 64L7.25333 59.52C8.24889 60.9422 9.52889 62.08 11.0933 62.9333C12.6578 63.6444 14.2933 64 16 64C17.7067 64 19.3422 63.6444 20.9067 62.9333C22.4711 62.08 23.7511 60.9422 24.7467 59.52L29.2267 64L32 61.2267L26.88 55.8933C27.4489 54.7556 27.8044 53.4756 27.9467 52.0533V51.84H32V48H27.9467V43.9467L27.52 43.3067L32 38.8267L29.2267 36.0533ZM16 36.0533C17.7067 36.0533 19.1289 36.6222 20.2667 37.76C21.4044 38.8978 21.9733 40.32 21.9733 42.0267H10.0267C10.0267 40.32 10.5956 38.8978 11.7333 37.76C12.8711 36.6222 14.2933 36.0533 16 36.0533ZM24.1067 52.0533C23.8222 54.1867 22.8978 56.0356 21.3333 57.6C19.9111 59.0222 18.1333 59.8044 16 59.9467C13.8667 59.8044 12.0178 59.0222 10.4533 57.6C9.03111 56.0356 8.24889 54.1867 8.10667 52.0533V46.08H24.1067V52.0533ZM63.36 25.6V29.0133L36.0533 46.2933V41.6L58.6667 27.3067L24.1067 5.33333V30.5067C22.8267 29.6533 21.4756 29.0133 20.0533 28.5867V1.70667L23.04 0L63.36 25.6Z" fill="#3794FF"/>
</svg>
