<svg width="57" height="57" viewBox="0 0 57 57" fill="none" xmlns="http://www.w3.org/2000/svg">
<path d="M56.0933 9.86666L52.8933 9.22667L44.5733 17.5467L39.6667 12.64L47.9867 4.10667L47.3467 0.906666C45.4978 0.337777 43.5778 0.0533333 41.5867 0.0533333C39.7378 0.0533333 37.8889 0.48 36.04 1.33333C34.1911 2.04444 32.5556 3.11111 31.1333 4.53333C29.7111 5.95555 28.5733 7.66222 27.72 9.65333C27.0089 11.5022 26.6533 13.4933 26.6533 15.6267C26.6533 17.6178 27.0089 19.5378 27.72 21.3867C19.4711 29.6356 11.2933 37.9556 3.18667 46.3467C2.33333 47.4844 1.90667 48.8356 1.90667 50.4C2.04889 51.8222 2.68889 53.0311 3.82667 54.0267C4.39556 54.5956 4.96444 55.0933 5.53333 55.52C6.24444 55.8044 6.95556 55.9467 7.66667 55.9467C8.94667 55.9467 10.0844 55.4489 11.08 54.4533C14.0667 51.7511 18.12 47.7689 23.24 42.5067C28.0756 37.8133 32.3422 33.5467 36.04 29.7067C37.8889 30.56 39.8089 30.9867 41.8 30.9867C43.7911 30.9867 45.7111 30.6311 47.56 29.92C49.4089 29.0667 51.0444 27.9289 52.4667 26.5067C53.8889 24.9422 54.9556 23.2356 55.6667 21.3867C56.52 19.5378 56.9467 17.6178 56.9467 15.6267C56.9467 13.6356 56.6622 11.7156 56.0933 9.86666ZM8.73333 51.68C8.59111 51.8222 8.37778 51.8933 8.09333 51.8933H7.66667C7.38222 51.8933 7.16889 51.8933 7.02667 51.8933C6.88444 51.7511 6.67111 51.5378 6.38667 51.2533C6.24444 50.9689 6.10222 50.6133 5.96 50.1867C5.81778 49.76 5.81778 49.4044 5.96 49.12C11.9333 42.8622 19.8978 34.7556 29.8533 24.8C30.28 25.3689 30.7067 25.9378 31.1333 26.5067C31.56 26.9333 32.0578 27.36 32.6267 27.7867C22.2444 38.4533 14.28 46.4178 8.73333 51.68ZM53.1067 15.4133C53.2489 18.6844 52.1822 21.4578 49.9067 23.7333C47.6311 25.8667 44.9289 26.9333 41.8 26.9333C38.6711 26.9333 36.04 25.8667 33.9067 23.7333C32.2 22.0267 31.1333 20.0356 30.7067 17.76C30.28 15.4844 30.4933 13.28 31.3467 11.1467C31.9156 9.72444 32.6978 8.44444 33.6933 7.30666C34.8311 6.16889 36.1111 5.31555 37.5333 4.74667C38.9556 4.17778 40.3778 3.89333 41.8 3.89333H42.8667L35.6133 11.36V14.1333L43.08 21.6H45.8533L53.1067 14.3467V15.4133ZM10.0133 22.6667H15.9867L18.9733 25.6533L21.5333 22.88L18.9733 20.1067L19.1867 13.4933L18.3333 11.7867L6.81333 4.10667L4.46667 4.53333L1.26667 7.73333L0.84 10.2933L8.30667 21.8133L10.0133 22.6667ZM6.17333 8.16L15.3467 14.3467V18.8267H11.08L5.10667 9.44L6.17333 8.16ZM34.5467 36.1067L37.32 33.3333L49.6933 46.1333C50.8311 47.2711 51.4 48.6222 51.4 50.1867C51.4 51.7511 50.8311 53.1022 49.6933 54.24C48.84 55.0933 47.8444 55.6622 46.7067 55.9467C45.7111 56.0889 44.6444 55.9467 43.5067 55.52C42.7956 55.2356 42.2267 54.8089 41.8 54.24L29.2133 41.44L31.9867 38.6667L44.36 51.4667C44.6444 51.7511 44.9289 51.9644 45.2133 52.1067C45.64 52.2489 45.9956 52.2489 46.28 52.1067C46.7067 51.9644 46.9911 51.8222 47.1333 51.68C47.2756 51.3956 47.3467 51.1822 47.3467 51.04C47.4889 50.7556 47.56 50.4711 47.56 50.1867C47.56 49.9022 47.4889 49.6889 47.3467 49.5467C47.3467 49.2622 47.2756 49.0489 47.1333 48.9067L34.5467 36.1067Z" fill="#3794FF"/>
</svg>
