<svg width="52" height="37" viewBox="0 0 52 37" fill="none" xmlns="http://www.w3.org/2000/svg">
<path d="M48.1067 0.946667H3.94667C2.80889 0.946667 1.88444 1.37333 1.17333 2.22667C0.462222 2.93778 0.106667 3.86222 0.106667 5V32.9467C0.106667 34.0844 0.462222 35.08 1.17333 35.9333C1.88444 36.6444 2.80889 37 3.94667 37H48.1067C49.1022 37 49.9556 36.6444 50.6667 35.9333C51.52 35.08 51.9467 34.0844 51.9467 32.9467V5C51.9467 3.86222 51.52 2.93778 50.6667 2.22667C49.9556 1.37333 49.1022 0.946667 48.1067 0.946667ZM48.1067 32.9467H3.94667V5H48.1067V32.9467ZM35.9467 9.05333H32.1067V12.8933H35.9467V9.05333ZM32.1067 16.9467H28.0533V21H32.1067V16.9467ZM40 9.05333H44.0533V12.8933H40V9.05333ZM44.0533 25.0533H40V28.8933H44.0533V25.0533ZM16.1067 25.0533H35.9467V28.8933H16.1067V25.0533ZM44.0533 16.9467H35.9467V21H44.0533V16.9467ZM24 9.05333H28.0533V12.8933H24V9.05333ZM24 16.9467H19.9467V21H24V16.9467ZM8 25.0533H12.0533V28.8933H8V25.0533ZM8 9.05333H12.0533V12.8933H8V9.05333ZM19.9467 9.05333H16.1067V12.8933H19.9467V9.05333ZM8 16.9467H16.1067V21H8V16.9467Z" fill="#3794FF"/>
</svg>
