<svg width="57" height="57" viewBox="0 0 57 57" fill="none" xmlns="http://www.w3.org/2000/svg">
<path d="M28 1.05333C24.3022 1.05333 20.7467 1.76444 17.3333 3.18666C13.92 4.60889 10.8622 6.67111 8.16 9.37333C5.6 11.9333 3.60889 14.92 2.18667 18.3333C0.764445 21.7467 0.0533333 25.3022 0.0533333 29V30.7067C0.195556 32.6978 0.906667 34.1911 2.18667 35.1867C3.60889 36.04 5.24444 36.3244 7.09333 36.04C8.94222 35.7556 10.5778 34.9733 12 33.6933C13.4222 32.2711 15.1289 31.6311 17.12 31.7733C19.1111 31.7733 20.8178 32.4844 22.24 33.9067C23.6622 35.3289 24.3733 37.0356 24.3733 39.0267C24.5156 40.8756 23.8756 42.5822 22.4533 44.1467C21.0311 45.5689 20.1778 47.2756 19.8933 49.2667C19.7511 51.2578 20.1778 53.0356 21.1733 54.6C22.1689 56.0222 23.7333 56.8044 25.8667 56.9467H28.2133C33.1911 56.9467 37.8133 55.6667 42.08 53.1067C46.4889 50.5467 49.9022 47.1333 52.32 42.8667C54.88 38.6 56.16 33.9778 56.16 29C56.16 23.88 54.88 19.1867 52.32 14.92C49.9022 10.6533 46.4889 7.24 42.08 4.68C37.8133 2.12 33.1911 0.84 28.2133 0.84L28 1.05333ZM28 53.1067H25.8667C25.2978 52.9644 24.8 52.7511 24.3733 52.4667C24.0889 52.1822 23.9467 51.7556 23.9467 51.1867C23.6622 49.48 24.0889 48.0578 25.2267 46.92C27.36 44.6444 28.4267 42.0133 28.4267 39.0267C28.4267 35.8978 27.2889 33.1956 25.0133 30.92C22.88 28.6444 20.2489 27.5067 17.12 27.5067C13.9911 27.5067 11.2889 28.6444 9.01333 30.92C8.01778 32.0578 6.80889 32.4844 5.38667 32.2C5.10222 32.2 4.81778 32.0578 4.53333 31.7733C4.24889 31.4889 4.10667 31.1333 4.10667 30.7067V29.2133C4.10667 24.8044 5.17333 20.8222 7.30667 17.2667C9.58222 13.5689 12.4978 10.6533 16.0533 8.52C19.7511 6.24444 23.7333 5.10667 28 5.10667C32.4089 5.10667 36.4622 6.24444 40.16 8.52C43.8578 10.6533 46.7733 13.5689 48.9067 17.2667C51.04 20.8222 52.1067 24.8044 52.1067 29.2133C52.1067 33.48 51.04 37.4622 48.9067 41.16C46.7733 44.8578 43.8578 47.7733 40.16 49.9067C36.4622 52.04 32.48 53.1067 28.2133 53.1067H28ZM32.0533 13C32.0533 14.1378 31.6267 15.1333 30.7733 15.9867C30.0622 16.6978 29.1378 17.0533 28 17.0533C26.8622 17.0533 25.8667 16.6978 25.0133 15.9867C24.3022 15.1333 23.9467 14.1378 23.9467 13C23.9467 11.8622 24.3022 10.9378 25.0133 10.2267C25.8667 9.37333 26.8622 8.94667 28 8.94667C29.1378 8.94667 30.0622 9.37333 30.7733 10.2267C31.6267 10.9378 32.0533 11.8622 32.0533 13ZM44 40.9467C44 42.0844 43.5733 43.08 42.72 43.9333C42.0089 44.6444 41.0844 45 39.9467 45C38.8089 45 37.8133 44.6444 36.96 43.9333C36.2489 43.08 35.8933 42.1556 35.8933 41.16C36.0356 40.0222 36.4622 39.0978 37.1733 38.3867C37.8844 37.5333 38.8089 37.1067 39.9467 37.1067C41.0844 37.1067 42.0089 37.5333 42.72 38.3867C43.5733 39.0978 44 39.9511 44 40.9467ZM16.0533 21.1067C17.1911 21.1067 18.1156 20.7511 18.8267 20.04C19.68 19.1867 20.0356 18.1911 19.8933 17.0533C19.8933 15.9156 19.5378 14.9911 18.8267 14.28C18.1156 13.4267 17.1911 13 16.0533 13C14.9156 13 13.92 13.4267 13.0667 14.28C12.3556 14.9911 12 15.9156 12 17.0533C12 18.1911 12.3556 19.1867 13.0667 20.04C13.92 20.7511 14.9156 21.1067 16.0533 21.1067ZM44 17.0533C44 18.1911 43.5733 19.1867 42.72 20.04C42.0089 20.7511 41.0844 21.1067 39.9467 21.1067C38.8089 21.1067 37.8133 20.7511 36.96 20.04C36.2489 19.1867 35.8933 18.1911 35.8933 17.0533C36.0356 15.9156 36.4622 14.9911 37.1733 14.28C37.8844 13.4267 38.8089 13 39.9467 13C41.0844 13 42.0089 13.4267 42.72 14.28C43.5733 14.9911 44 15.9156 44 17.0533ZM48.0533 29C48.0533 30.1378 47.6267 31.1333 46.7733 31.9867C46.0622 32.6978 45.1378 33.0533 44 33.0533C42.8622 33.0533 41.8667 32.6978 41.0133 31.9867C40.3022 31.1333 39.9467 30.1378 39.9467 29C39.9467 27.8622 40.3022 26.9378 41.0133 26.2267C41.8667 25.3733 42.8622 24.9467 44 24.9467C45.1378 24.9467 46.0622 25.3733 46.7733 26.2267C47.6267 26.9378 48.0533 27.8622 48.0533 29Z" fill="#3794FF"/>
</svg>
