<svg width="50" height="65" viewBox="0 0 50 65" fill="none" xmlns="http://www.w3.org/2000/svg">
<path d="M49.1067 21.9733C49.1067 20.1244 48.6089 18.4178 47.6133 16.8533C46.6178 15.1467 45.2667 13.8667 43.56 13.0133C41.8533 12.16 40.0756 11.8044 38.2267 11.9467C36.3778 12.0889 34.6711 12.7289 33.1067 13.8667C31.5422 15.0044 30.4044 16.4978 29.6933 18.3467C29.1244 20.0533 28.9822 21.8311 29.2667 23.68C29.5511 25.5289 30.3333 27.1644 31.6133 28.5867C32.8933 29.8667 34.4578 30.7911 36.3067 31.36C35.5956 32.7822 34.6 33.92 33.32 34.7733C32.04 35.4844 30.6178 35.84 29.0533 35.84H21.16C18.0311 35.84 15.3289 36.9067 13.0533 39.04V19.6267C15.6133 19.2 17.6044 17.9911 19.0267 16C20.5911 13.8667 21.2311 11.52 20.9467 8.96C20.8044 6.4 19.7378 4.26667 17.7467 2.56C15.8978 0.853333 13.6933 0 11.1333 0C8.57333 0 6.29778 0.853333 4.30667 2.56C2.45778 4.26667 1.39111 6.4 1.10667 8.96C0.964444 11.52 1.60444 13.8667 3.02667 16C4.59111 17.9911 6.65333 19.2 9.21333 19.6267V43.9467C6.65333 44.5156 4.59111 45.7956 3.02667 47.7867C1.46222 49.7778 0.751111 52.0533 0.893333 54.6133C1.17778 57.1733 2.17333 59.3778 3.88 61.2267C5.72889 62.9333 7.93333 63.8578 10.4933 64C13.0533 64.1422 15.3289 63.4311 17.32 61.8667C19.3111 60.3022 20.52 58.24 20.9467 55.68C21.3733 53.12 20.9467 50.7733 19.6667 48.64C18.3867 46.5067 16.4667 45.0844 13.9067 44.3733C14.6178 42.9511 15.6133 41.8844 16.8933 41.1733C18.1733 40.32 19.5956 39.8933 21.16 39.8933H29.0533C31.6133 39.8933 33.8889 39.1822 35.88 37.76C38.0133 36.1956 39.5067 34.2044 40.36 31.7867C42.7778 31.5022 44.84 30.4356 46.5467 28.5867C48.2533 26.5956 49.1067 24.3911 49.1067 21.9733ZM5.16 10.0267C5.16 8.32 5.72889 6.89778 6.86667 5.76C8.00444 4.62222 9.42667 4.05333 11.1333 4.05333C12.84 4.05333 14.2622 4.62222 15.4 5.76C16.5378 6.89778 17.1067 8.32 17.1067 10.0267C17.1067 11.5911 16.5378 13.0133 15.4 14.2933C14.2622 15.4311 12.84 16 11.1333 16C9.42667 16 8.00444 15.4311 6.86667 14.2933C5.72889 13.0133 5.16 11.5911 5.16 10.0267ZM17.1067 53.76C17.1067 55.4667 16.5378 56.8889 15.4 58.0267C14.2622 59.1644 12.84 59.7333 11.1333 59.7333C9.42667 59.7333 8.00444 59.1644 6.86667 58.0267C5.72889 56.8889 5.16 55.5378 5.16 53.9733C5.16 52.2667 5.72889 50.8444 6.86667 49.7067C8.00444 48.4267 9.42667 47.7867 11.1333 47.7867C12.84 47.7867 14.2622 48.4267 15.4 49.7067C16.5378 50.8444 17.1067 52.1956 17.1067 53.76ZM39.08 27.9467C37.3733 27.9467 35.9511 27.3778 34.8133 26.24C33.6756 24.96 33.1067 23.5378 33.1067 21.9733C33.1067 20.2667 33.6756 18.8444 34.8133 17.7067C35.9511 16.5689 37.3022 16 38.8667 16C40.5733 16 41.9956 16.5689 43.1333 17.7067C44.4133 18.8444 45.0533 20.2667 45.0533 21.9733C45.0533 23.5378 44.4133 24.96 43.1333 26.24C41.9956 27.3778 40.6444 27.9467 39.08 27.9467Z" fill="#3794FF"/>
</svg>
