<svg width="53" height="52" viewBox="0 0 53 52" fill="none" xmlns="http://www.w3.org/2000/svg">
<path d="M26.92 0.0533333C31.6133 0.0533333 35.9511 1.26222 39.9333 3.68C43.9156 5.95555 47.0444 9.08444 49.32 13.0667C51.7378 17.0489 52.9467 21.3867 52.9467 26.08C52.9467 30.7733 51.7378 35.1111 49.32 39.0933C47.0444 43.0756 43.9156 46.2044 39.9333 48.48C35.9511 50.7556 31.6133 51.8933 26.92 51.8933C22.2267 51.8933 17.8889 50.7556 13.9067 48.48C9.92444 46.2044 6.72444 43.0756 4.30667 39.0933C2.03111 35.1111 0.893333 30.7733 0.893333 26.08C0.893333 21.3867 2.03111 17.0489 4.30667 13.0667C6.72444 9.08444 9.92444 5.95555 13.9067 3.68C17.8889 1.26222 22.2267 0.0533333 26.92 0.0533333ZM46.5467 16.0533C45.2667 13.4933 43.56 11.2889 41.4267 9.44C39.2933 7.59111 36.9467 6.24 34.3867 5.38667C36.0933 8.65778 37.3733 12.2133 38.2267 16.0533H46.5467ZM48.8933 28C49.0356 27.2889 49.1067 26.6489 49.1067 26.08C48.9644 23.9467 48.68 21.9556 48.2533 20.1067H38.8667C39.0089 21.5289 39.08 22.8089 39.08 23.9467C39.08 26.6489 38.7956 29.3511 38.2267 32.0533H48.2533C48.5378 30.7733 48.7511 29.4222 48.8933 28ZM34.8133 28V27.7867C34.9556 26.5067 35.0267 25.2267 35.0267 23.9467C35.0267 22.6667 34.8844 21.3867 34.6 20.1067H19.24C19.0978 21.3867 19.0267 22.6667 19.0267 23.9467C19.0267 26.6489 19.3111 29.3511 19.88 32.0533H34.1733C34.4578 30.6311 34.6711 29.28 34.8133 28ZM33.96 16.0533C32.9644 11.7867 31.3289 7.80444 29.0533 4.10667H26.92H25C22.5822 7.80444 20.9467 11.7867 20.0933 16.0533H33.96ZM15.8267 16.0533C16.5378 12.2133 17.8178 8.58666 19.6667 5.17333C16.9644 6.16889 14.5467 7.59111 12.4133 9.44C10.4222 11.2889 8.78667 13.4933 7.50667 16.0533H15.8267ZM5.8 19.8933C5.23111 21.8844 4.94667 23.9467 4.94667 26.08C4.94667 28.0711 5.23111 30.0622 5.8 32.0533H15.8267C15.2578 29.3511 14.9733 26.6489 14.9733 23.9467C14.9733 22.8089 15.0444 21.5289 15.1867 20.1067H5.8V19.8933ZM16.8933 35.8933H7.50667C8.92889 39.0222 10.9911 41.5822 13.6933 43.5733C16.3956 45.5644 19.3822 46.9156 22.6533 47.6267C20.0933 44.0711 18.1733 40.2311 16.8933 36.1067V35.8933ZM26.92 46.56C29.48 43.4311 31.4711 39.9467 32.8933 36.1067H21.16C22.44 39.9467 24.36 43.4311 26.92 46.56ZM37.16 35.8933C35.88 40.16 33.96 44.0711 31.4 47.6267C34.6711 46.9156 37.5867 45.5644 40.1467 43.5733C42.8489 41.5822 44.9822 39.0222 46.5467 35.8933H37.16Z" fill="#3794FF"/>
</svg>
